HIERARCHY
ROOT Hips
{
	OFFSET -3.958830 18.904000 13.208200
	CHANNELS 6 Xposition Yposition Zposition Zrotation Yrotation Xrotation 
	JOINT LHipJoint
	{
		OFFSET 0.000000 0.000000 0.000000
		CHANNELS 3 Zrotation Yrotation Xrotation
		JOINT LeftUpLeg
		{
			OFFSET 1.800000 -1.400000 0.085000
			CHANNELS 3 Zrotation Yrotation Xrotation
			JOINT LeftLeg
			{
				OFFSET 2.215000 -6.000000 0.000000
				CHANNELS 3 Zrotation Yrotation Xrotation
				JOINT LeftFoot
				{
					OFFSET 2.500000 -6.900000 0.000000
					CHANNELS 3 Zrotation Yrotation Xrotation
					JOINT LeftToeBase
					{
						OFFSET 0.200000 -0.500000 1.950000
						CHANNELS 3 Zrotation Yrotation Xrotation
						End Site
						{
							OFFSET 0.000000 0.000000 0.000000
						}
					}
				}
			}
		}
	}
	JOINT RHipJoint
	{
		OFFSET 0.000000 0.000000 0.000000
		CHANNELS 3 Zrotation Yrotation Xrotation
		JOINT RightUpLeg
		{
			OFFSET -1.800000 -1.400000 0.085000
			CHANNELS 3 Zrotation Yrotation Xrotation
			JOINT RightLeg
			{
				OFFSET -2.215000 -6.000000 0.000000
				CHANNELS 3 Zrotation Yrotation Xrotation
				JOINT RightFoot
				{
					OFFSET -2.500000 -6.900000 0.000000
					CHANNELS 3 Zrotation Yrotation Xrotation
					JOINT RightToeBase
					{
						OFFSET -0.200000 -0.500000 1.950000
						CHANNELS 3 Zrotation Yrotation Xrotation
						End Site
						{
							OFFSET 0.000000 0.000000 0.000000
						}
					}
				}
			}
		}
	}
	JOINT LowerBack
	{
		OFFSET 0.000000 0.000000 0.000000
		CHANNELS 3 Zrotation Yrotation Xrotation
		JOINT Spine
		{
			OFFSET -0.087000 1.940000 -0.288900
			CHANNELS 3 Zrotation Yrotation Xrotation
			JOINT Spine1
			{
				OFFSET 0.000000 1.950000 0.060000
				CHANNELS 3 Zrotation Yrotation Xrotation
				JOINT Neck
				{
					OFFSET 0.000000 0.000000 0.000000
					CHANNELS 3 Zrotation Yrotation Xrotation
					JOINT Neck1
					{
						OFFSET 0.000000 1.600000 0.340000
						CHANNELS 3 Zrotation Yrotation Xrotation
						JOINT Head
						{
							OFFSET 0.000000 1.667000 -0.240000
							CHANNELS 3 Zrotation Yrotation Xrotation
							End Site
							{
								OFFSET 0.000000 0.000000 0.000000
							}
						}
					}
				}
				JOINT LeftShoulder
				{
					OFFSET 0.000000 0.000000 0.000000
					CHANNELS 3 Zrotation Yrotation Xrotation
					JOINT LeftArm
					{
						OFFSET 2.700000 1.550000 -0.730000
						CHANNELS 3 Zrotation Yrotation Xrotation
						JOINT LeftForeArm
						{
							OFFSET 5.450000 0.000000 0.000000
							CHANNELS 3 Zrotation Yrotation Xrotation
							JOINT LeftHand
							{
								OFFSET 3.450000 0.000000 0.000000
								CHANNELS 3 Zrotation Yrotation Xrotation
								JOINT LeftHandIndex1
								{
									OFFSET 0.750000 0.000000 0.000000
									CHANNELS 3 Zrotation Yrotation Xrotation
									End Site
									{
										OFFSET 0.000000 0.000000 0.000000
									}
								}
							}
						}
					}
				}
				JOINT RightShoulder
				{
					OFFSET 0.000000 0.000000 0.000000
					CHANNELS 3 Zrotation Yrotation Xrotation
					JOINT RightArm
					{
						OFFSET -2.700000 1.550000 -0.730000
						CHANNELS 3 Zrotation Yrotation Xrotation
						JOINT RightForeArm
						{
							OFFSET -5.450000 0.000000 0.000000
							CHANNELS 3 Zrotation Yrotation Xrotation
							JOINT RightHand
							{
								OFFSET -3.450000 0.000000 0.000000
								CHANNELS 3 Zrotation Yrotation Xrotation
								JOINT RightHandIndex1
								{
									OFFSET -0.750000 0.000000 0.000000
									CHANNELS 3 Zrotation Yrotation Xrotation
									End Site
									{
										OFFSET 0.000000 0.000000 0.000000
									}
								}
							}
						}
					}
				}
			}
		}
	}
}
MOTION
Frames: 13
Frame Time: 0.016667
0.990380 12.751010 -1.852490 -71.160757 -51.362301 26.840159 -15.879806 7.690917 5.855902 -30.947552 -22.638511 -64.666126 55.006679 -17.387249 63.946485 2.368528 15.424333 -0.426404 0.288210 0.219540 0.167290 18.678513 -5.218903 6.882899 -50.909739 14.303246 -41.493375 101.557425 -11.770686 10.385684 -2.034399 -8.781321 1.438352 0.107840 0.109850 -0.081510 -4.579256 -0.728521 -11.341818 21.033335 -4.623474 67.582163 -19.239752 5.292778 18.182656 10.172424 2.193270 -19.448299 0.421258 4.199644 63.945532 12.026560 -2.894050 -2.208860 -25.087143 -36.651031 17.117244 -19.930708 0.864588 0.589876 5.738372 3.404312 -0.467645 -3.569622 2.710990 0.452060 -0.095270 0.043320 0.030370 3.697954 43.098464 -0.332837 -7.628378 22.866540 -23.229940 -65.202290 37.175562 -24.522519 2.861631 -1.395854 -0.145950 0.290200 0.030060 -0.084060 
0.884160 12.859420 -1.904220 -70.356278 -52.956887 24.030575 -16.060500 8.036568 6.085827 -29.004148 -23.834485 -65.811519 58.126572 -21.161451 72.310683 3.030258 17.562967 -0.864666 0.364570 0.317960 0.270880 18.436854 -5.484340 6.291804 -47.466977 13.591913 -43.218247 109.339283 -29.443058 17.760257 -2.585851 -10.496954 1.023638 0.100180 0.009330 -0.101430 -4.245528 -1.456148 -11.245388 16.711987 -2.810393 70.755554 -15.900701 5.652280 16.881571 8.542796 3.541464 -21.418376 1.909490 3.461542 68.752820 13.206880 -2.257820 -1.749650 -24.766367 -37.874617 16.633697 -22.458275 1.591241 -0.101716 6.085609 3.047197 -0.349270 -3.482714 2.684114 0.496670 -0.167250 0.152980 0.051630 6.502373 43.449221 3.380607 -2.518604 19.093825 -24.984274 -66.208338 36.881086 -25.078765 2.955389 -1.445902 -0.087720 0.281990 -0.068220 -0.091220 
0.839680 12.948230 -1.909040 -73.505631 -54.102823 24.165651 -16.058004 8.438623 6.258189 -24.298228 -23.556492 -66.626579 59.696528 -24.989137 81.050865 3.598474 19.473138 -1.252426 0.521880 0.518250 0.436340 18.298606 -6.162077 5.477819 -39.578128 15.014496 -42.644555 108.941363 -50.127963 27.375770 -3.007853 -11.646148 0.735993 0.149480 -0.171840 -0.103600 -4.123760 -1.643639 -10.981161 15.698169 -3.620664 74.228186 -15.105949 6.487771 15.881045 7.827898 4.630290 -23.315613 2.299275 2.760395 73.780869 13.375230 -1.537670 -4.908000 -25.007308 -38.567224 15.341538 -23.269244 0.299150 -0.580434 6.900314 3.298852 -0.269762 -3.391437 2.649918 0.573860 -0.288100 0.324160 0.064420 8.058643 42.647431 6.589787 3.297772 15.447720 -27.707523 -66.088541 38.128349 -25.897718 3.109260 -1.567238 0.005250 0.260110 -0.194270 -0.109710 
0.809840 13.026470 -1.926430 -74.894117 -57.704038 23.138440 -16.101736 8.545882 6.104169 -18.736794 -21.780985 -66.075370 57.177064 -26.223136 93.517899 4.048211 21.048945 -1.534121 0.658920 0.678050 0.590260 18.232182 -6.054889 5.560330 -38.126546 18.146635 -42.546724 91.338660 -57.026093 42.369384 -3.258090 -12.422362 0.506165 0.200030 -0.333350 -0.102380 -4.035552 -1.882149 -10.981805 12.659893 -1.452307 78.333127 -13.518334 8.162129 14.871192 6.859005 5.272743 -24.598492 2.010375 1.973576 77.769797 13.081560 -0.958730 -9.109130 -24.533698 -38.898551 13.913791 -23.434616 -2.846781 -0.861353 8.278488 3.071806 -0.261022 -3.321062 2.616720 0.671750 -0.403650 0.481010 0.073140 9.721753 42.367701 9.244468 9.482875 12.120654 -30.337034 -64.997014 38.164455 -25.538444 3.287903 -1.693293 0.063010 0.256120 -0.296930 -0.140360 
0.747780 13.072000 -1.942230 -73.805253 -60.437417 20.747656 -16.246949 8.452381 6.128571 -12.346252 -21.430482 -65.564281 53.028660 -25.539704 106.588355 4.331975 21.900064 -1.616236 0.696990 0.732620 0.636510 18.133953 -5.632973 5.741155 -38.071467 20.108736 -42.665819 67.314148 -56.105015 59.610112 -3.628948 -14.248137 0.057038 0.228980 -0.358550 -0.132130 -3.891863 -2.348992 -11.138446 9.060059 0.927126 80.346030 -10.802230 9.472806 14.681506 5.869139 5.145722 -25.595481 0.462940 2.640608 80.028153 13.661850 -0.539950 -9.711050 -24.662983 -39.434416 12.993566 -23.259849 -5.993178 -1.240526 10.539127 2.277427 -0.323547 -3.316471 2.593217 0.707960 -0.435770 0.529210 0.096880 12.330628 42.835799 11.020346 12.887698 8.725710 -30.155192 -58.784165 35.933782 -21.630284 3.355813 -1.798730 0.050470 0.303510 -0.340470 -0.147900 
0.713880 13.042570 -1.920820 -77.862382 -62.376814 24.085097 -16.249848 8.229268 6.183870 -4.515412 -20.676013 -66.071441 50.759790 -25.454394 114.260543 4.404290 22.141332 -1.589206 0.721710 0.761680 0.663610 18.174520 -5.494597 5.786049 -36.195679 21.561114 -44.916620 43.357940 -53.290034 79.071562 -4.131928 -16.827251 -0.498985 0.279700 -0.314370 -0.185940 -3.995125 -2.283838 -11.254002 8.862792 -0.493184 80.841855 -10.936753 10.372574 15.062029 5.737279 4.197884 -26.241605 -3.665265 4.898290 81.156947 14.351510 -0.639100 -11.054250 -24.857554 -39.191262 11.437237 -22.619069 -10.322475 -1.483420 12.408017 1.784094 -0.533524 -3.356076 2.487571 0.751220 -0.449340 0.541070 0.140610 13.110157 42.722818 12.016289 15.455028 7.332332 -27.246970 -50.035340 29.038540 -15.375672 3.112757 -1.767836 -0.019680 0.432830 -0.362510 -0.148600 
0.708440 13.008310 -1.937820 -80.503583 -64.482364 26.084855 -16.304643 8.501010 6.361651 2.929508 -19.441106 -64.743183 48.388972 -24.081537 119.395100 4.344080 21.666343 -1.463322 0.757240 0.784900 0.705560 18.122764 -5.957744 5.244686 -30.250605 21.105336 -46.766705 19.999960 -39.734760 92.274340 -4.020892 -17.313770 -0.655318 0.305280 -0.314290 -0.200260 -3.951364 -2.349830 -11.084381 6.707434 0.031121 81.917648 -9.692362 11.515759 14.770881 5.444169 3.189945 -26.954080 -7.298970 6.781879 80.770595 14.287570 -0.407590 -11.110810 -24.511046 -38.885274 10.018940 -21.627600 -15.360751 -2.266563 15.676864 1.297218 -0.899347 -3.390095 2.515101 0.766180 -0.459660 0.551210 0.169060 14.043701 43.116251 13.096614 16.052366 6.387238 -23.546251 -40.225720 22.314647 -9.761525 2.938908 -1.758838 -0.039870 0.456370 -0.405620 -0.152790 
0.694100 12.968860 -1.946030 -79.300649 -66.284335 23.956972 -16.389867 9.238910 6.551171 9.130500 -19.339529 -59.886667 44.974128 -19.846467 126.895494 4.047432 20.297285 -1.252523 0.849240 0.888040 0.810080 17.946586 -6.790936 4.348602 -21.891038 17.482762 -45.554743 1.735161 -20.629737 92.231084 -3.152326 -14.217017 -0.072502 0.363940 -0.406810 -0.190630 -3.750733 -2.757932 -10.636547 3.177177 1.150015 83.298891 -7.933866 12.492719 14.716006 5.339724 3.003605 -27.966441 -8.809378 7.419562 82.531925 13.160400 0.757140 -14.115280 -23.934856 -39.298144 8.826797 -19.945025 -20.346599 -3.418679 19.138958 2.018595 -1.334286 -3.425832 2.541805 0.827370 -0.514440 0.634120 0.160360 14.368442 43.843460 13.921857 17.882899 5.362131 -19.518977 -30.981628 16.742048 -5.731138 2.793213 -1.654910 -0.021930 0.453420 -0.453800 -0.185770 
0.658110 12.919560 -2.015430 -80.199273 -69.089905 23.918951 -16.444134 9.767447 6.649284 15.364251 -18.411763 -55.888307 40.471552 -10.729185 134.418633 3.581143 18.175044 -0.865738 0.882400 0.913500 0.851200 17.794790 -7.327185 3.777285 -13.023784 14.846122 -44.294033 -11.161525 -5.218019 82.342149 -2.465182 -11.345454 0.615991 0.368440 -0.446490 -0.159530 -3.546317 -3.127820 -10.318450 -0.201452 4.322851 84.350367 -5.495500 14.319088 13.043956 4.746207 2.654334 -27.861874 -9.712952 7.801536 83.527721 12.807220 1.902450 -15.130370 -23.816699 -39.202550 7.188997 -18.230946 -24.420805 -5.731652 23.176400 -1.752095 -2.703942 -3.365945 2.612394 0.864300 -0.527900 0.674140 0.156030 16.501718 44.190878 15.015911 20.352302 3.894586 -15.607708 -23.734037 14.154909 -3.412280 2.659298 -1.507677 -0.006260 0.421710 -0.469770 -0.207510 
0.618390 12.844710 -2.072830 -78.952408 -69.393155 22.405911 -16.551538 10.210936 6.836344 21.619720 -19.350504 -51.296265 36.231891 -1.548870 140.149886 3.343146 16.819421 -0.589942 0.921020 0.963380 0.864760 17.608123 -7.555205 3.295777 -6.513801 11.288300 -43.295863 -20.684615 2.707578 68.241055 -2.036632 -9.333041 1.146708 0.372700 -0.483630 -0.149170 -3.246709 -3.935998 -10.096604 -2.724468 4.920567 85.452089 -2.191666 15.050695 11.350749 4.478227 0.837711 -27.727359 -15.204980 10.787526 83.294429 13.677460 1.867010 -16.207530 -24.347802 -38.988014 5.478978 -18.427277 -26.627415 -9.506426 27.390584 -12.467857 -5.772785 -3.118951 2.689683 0.865480 -0.566810 0.701060 0.154640 19.203895 44.792690 16.187288 21.383958 2.306717 -12.299820 -17.304380 11.723699 -1.772611 2.607755 -1.330831 0.039910 0.391800 -0.484500 -0.195070 
0.548580 12.751570 -2.044930 -86.568588 -73.442357 29.009412 -16.620492 9.977734 7.030592 27.303957 -18.175603 -45.447002 31.736977 13.531030 145.788305 3.218811 16.157991 -0.458670 1.022700 1.084460 0.938150 17.490071 -7.847644 3.080314 0.231055 9.615689 -41.918191 -27.610928 5.806655 53.041288 -1.727096 -7.407659 1.699629 0.441460 -0.522450 -0.136390 -3.502139 -3.738071 -9.994168 -4.060674 5.306728 85.618598 -2.561947 15.970031 11.585030 3.948226 -0.400694 -27.987391 -19.570446 13.690672 83.996559 14.107290 3.017930 -19.221240 -24.416565 -40.020187 3.106571 -16.692702 -27.791180 -13.408813 29.422515 -23.186502 -8.879195 -2.955841 2.610336 0.902390 -0.607150 0.761790 0.171270 20.755006 46.379855 17.279713 24.106769 2.748839 -7.332014 -10.856788 5.459000 -0.352329 2.621975 -0.997353 0.065060 0.418160 -0.521220 -0.198040 
0.502720 12.560660 -2.073040 -104.780356 -78.642131 49.566299 -16.690501 8.254539 7.718024 35.248579 -16.542274 -45.291445 28.686687 32.491988 152.913011 3.599202 17.624319 -0.719279 1.040540 1.079840 1.003350 17.646485 -7.593668 3.260865 6.626555 10.503196 -45.468291 -32.446200 6.499514 42.536803 -1.539448 -6.271608 2.030651 0.485700 -0.522310 -0.119680 -3.749913 -3.317554 -10.530342 -6.354739 7.794192 81.018984 -2.476422 16.953663 12.685305 2.073894 -0.405014 -26.911475 -17.676809 13.131330 84.726855 12.366670 6.451910 -20.651230 -22.331531 -41.778477 1.356412 -14.521752 -29.542479 -15.442974 33.206045 -29.474742 -11.911040 -3.004929 2.478768 0.948990 -0.572100 0.756690 0.139550 21.798871 47.292221 18.105557 29.047549 3.334485 -5.198853 -8.192238 2.859249 0.035729 2.532082 -0.915039 0.005270 0.434930 -0.500980 -0.267820 
0.409560 12.421330 -2.128170 -98.906561 -81.655243 44.146141 -17.071144 8.005986 8.394853 38.797580 -20.041407 -44.647945 23.702234 48.882653 155.369459 4.756870 21.936037 -1.379776 1.011580 1.053290 0.963530 17.281752 -7.847194 2.573985 6.713496 6.457996 -45.261666 -23.081439 1.451305 29.134387 -0.854903 -3.095408 3.059632 0.490450 -0.478130 -0.106780 -3.802446 -3.650426 -10.476525 -10.254045 8.878984 79.308802 0.961933 16.416748 13.536628 0.065337 -1.732722 -25.774817 -19.463486 13.721859 82.881394 12.510860 7.892880 -20.439230 -21.049252 -43.410946 0.005027 -12.508294 -30.932281 -18.016239 38.633538 -40.747333 -17.518578 -3.005536 2.371515 0.928140 -0.528210 0.712290 0.134790 24.917149 47.713429 19.147820 31.630247 1.846602 -4.287098 -5.525330 1.889495 0.138663 2.445173 -0.904258 -0.018510 0.422340 -0.470240 -0.274960 
